<svg width="45" height="45" viewBox="0 0 45 45" fill="none" xmlns="http://www.w3.org/2000/svg">
<path d="M9.67501 33.3563C10.1625 34.4438 10.7438 35.5313 11.4188 36.5813C12.8438 38.775 14.7563 41.2313 17.25 41.25C18.2813 41.2687 18.975 40.95 19.725 40.6125C20.5875 40.2375 21.5063 39.8062 23.1188 39.8062C24.7313 39.7875 25.65 40.2187 26.4938 40.6125C27.225 40.95 27.9 41.25 28.9125 41.25C31.4063 41.2313 33.4313 38.4938 34.8563 36.3188C35.8875 34.7438 36.2625 33.9563 37.05 32.1938C31.275 30 30.3375 21.7688 36.0563 18.6188C34.3125 16.425 31.8563 15.1688 29.55 15.1688C27.8813 15.1688 26.7375 15.6 25.7063 15.9937C24.8438 16.3312 24.0375 16.6312 23.0813 16.6312C22.0313 16.6312 21.1125 16.2938 20.1375 15.9563C19.0688 15.5813 17.9625 15.1688 16.575 15.1688C13.9688 15.1688 11.2125 16.7625 9.45001 19.4625C8.60626 20.775 8.10001 22.5 7.95001 24.4312M28.8938 3.75C29.1938 5.8125 28.35 7.85625 27.2438 9.28125C26.0625 10.8187 24 12.0187 22.0125 11.9437C21.6563 9.95625 22.575 7.9125 23.7 6.54375C24.9563 5.04375 27.075 3.88125 28.8938 3.75Z" stroke="black" stroke-width="1.5" stroke-miterlimit="10" stroke-linecap="round" stroke-linejoin="round"/>
</svg>
