<svg width="811.523" height="84.376" viewBox="0 0 811.523 84.376" xmlns="http://www.w3.org/2000/svg"><g id="svgGroup" stroke-linecap="round" fill-rule="evenodd" font-size="9pt" stroke="#c4c4c4" stroke-width="0.25mm" fill="#ffffff" style="stroke:#c4c4c4;stroke-width:0.25mm;fill:#ffffff"><path d="M 417.041 52.735 L 417.041 80.86 L 413.525 80.86 L 413.525 0 L 452.441 0 L 452.441 3.516 L 417.041 3.516 L 417.041 7.032 L 452.441 7.032 L 452.441 10.547 L 417.041 10.547 L 417.041 14.063 L 452.441 14.063 L 452.441 17.578 L 417.041 17.578 L 417.041 35.157 L 450.781 35.157 L 450.781 38.672 L 417.041 38.672 L 417.041 42.188 L 450.781 42.188 L 450.781 45.703 L 417.041 45.703 L 417.041 49.219 L 450.781 49.219 L 450.781 52.735 L 417.041 52.735 Z M 487.305 64.844 L 487.305 61.328 L 508.496 61.328 Q 514.99 61.328 520.508 58.203 Q 526.025 55.078 529.321 49.512 Q 532.617 43.946 532.617 37.207 A 21.561 21.561 0 0 0 529.346 25.757 A 24.206 24.206 0 0 0 520.483 17.237 A 23.89 23.89 0 0 0 508.496 14.063 L 464.258 14.063 L 464.258 80.86 L 460.742 80.86 L 460.742 10.547 L 508.496 10.547 A 26.839 26.839 0 0 1 519.116 12.72 A 29.412 29.412 0 0 1 526.177 16.928 A 26.966 26.966 0 0 1 527.93 18.482 Q 531.641 22.071 533.887 27.002 A 24.364 24.364 0 0 1 536.133 37.207 A 31.531 31.531 0 0 1 535.171 45.151 A 25.531 25.531 0 0 1 532.227 52.124 A 25.625 25.625 0 0 1 521.729 61.817 L 529.102 80.86 L 525.342 80.86 L 518.359 63.233 A 33.624 33.624 0 0 1 517.122 63.617 Q 516.484 63.803 515.769 63.988 A 58.595 58.595 0 0 1 515.283 64.112 L 521.875 80.86 L 518.115 80.86 L 511.67 64.698 A 31.906 31.906 0 0 1 509.317 64.835 A 36.406 36.406 0 0 1 508.496 64.844 L 514.697 80.86 L 510.986 80.86 L 504.834 64.844 L 501.66 64.844 L 507.568 80.86 L 503.857 80.86 L 497.9 64.844 L 487.305 64.844 Z M 49.219 3.516 L 3.516 3.516 L 3.516 80.86 L 0 80.86 L 0 0 L 49.219 0 Q 56.934 0 63.647 3.809 A 29.191 29.191 0 0 1 74.341 14.136 Q 78.32 20.655 78.32 28.174 Q 78.32 35.352 74.268 40.772 A 23.361 23.361 0 0 1 76.966 45.544 A 17.361 17.361 0 0 1 78.32 52.198 A 31.837 31.837 0 0 1 77.405 59.947 A 27.692 27.692 0 0 1 75.977 64.185 A 27.392 27.392 0 0 1 72.408 70.275 A 23.887 23.887 0 0 1 69.653 73.242 Q 65.674 76.856 60.4 78.858 A 31.237 31.237 0 0 1 49.219 80.86 L 26.563 80.86 L 26.563 77.344 L 49.219 77.344 A 25.546 25.546 0 0 0 59.033 75.415 A 26.02 26.02 0 0 0 66.749 70.576 A 24.887 24.887 0 0 0 67.187 70.166 A 24.679 24.679 0 0 0 72.397 62.883 A 28.344 28.344 0 0 0 72.729 62.158 A 24.331 24.331 0 0 0 74.805 52.198 Q 74.805 50.495 74.225 48.289 A 28.023 28.023 0 0 0 73.706 46.558 A 17.504 17.504 0 0 0 70.459 40.723 Q 74.805 34.912 74.805 28.174 Q 74.805 21.582 71.313 15.894 Q 67.822 10.205 61.914 6.861 A 25.352 25.352 0 0 0 49.219 3.516 Z M 49.219 73.828 L 26.563 73.828 L 26.563 70.313 L 49.219 70.313 A 18.514 18.514 0 0 0 62.305 65.21 A 16.882 16.882 0 0 0 67.761 52.933 A 22.327 22.327 0 0 0 67.773 52.198 A 13.186 13.186 0 0 0 67.457 49.408 Q 67.098 47.752 66.333 45.923 A 14.154 14.154 0 0 0 64.862 43.224 A 10.549 10.549 0 0 0 62.354 40.674 A 16.399 16.399 0 0 0 67.762 28.865 A 19.888 19.888 0 0 0 67.773 28.174 A 16.284 16.284 0 0 0 62.881 16.46 A 21.835 21.835 0 0 0 62.207 15.796 A 18.336 18.336 0 0 0 49.219 10.547 L 10.547 10.547 L 10.547 80.86 L 7.031 80.86 L 7.031 7.032 L 49.219 7.032 A 21.99 21.99 0 0 1 60.132 9.888 Q 65.234 12.744 68.262 17.652 A 19.692 19.692 0 0 1 71.289 28.174 A 18.082 18.082 0 0 1 67.058 39.811 A 23.223 23.223 0 0 1 66.455 40.528 A 20.299 20.299 0 0 1 69.652 45.18 A 15.793 15.793 0 0 1 71.289 52.198 Q 71.289 58.301 68.237 63.306 A 21.323 21.323 0 0 1 60.132 71.07 A 22.417 22.417 0 0 1 49.219 73.828 Z M 26.563 42.774 L 26.563 39.258 L 49.219 39.258 A 13.321 13.321 0 0 0 53.52 38.587 A 11.487 11.487 0 0 0 57.397 36.353 A 9.463 9.463 0 0 0 60.506 30.809 A 14.015 14.015 0 0 0 60.742 28.174 A 9.445 9.445 0 0 0 58.164 21.666 A 13.07 13.07 0 0 0 57.251 20.752 A 11.59 11.59 0 0 0 49.219 17.578 L 17.578 17.578 L 17.578 80.86 L 14.063 80.86 L 14.063 14.063 L 49.219 14.063 Q 55.225 14.063 59.741 18.286 A 15.04 15.04 0 0 1 62.748 22.106 A 12.56 12.56 0 0 1 64.258 28.174 A 16.068 16.068 0 0 1 63.739 32.337 A 13.168 13.168 0 0 1 62.183 35.938 Q 60.107 39.258 56.592 41.065 A 12.734 12.734 0 0 1 60.634 43.327 Q 64.258 46.424 64.258 52.198 A 16.256 16.256 0 0 1 63.587 56.979 A 12.81 12.81 0 0 1 59.863 62.818 A 15.259 15.259 0 0 1 49.414 66.796 A 19.496 19.496 0 0 1 49.219 66.797 L 26.563 66.797 L 26.563 63.282 L 49.219 63.282 A 13.321 13.321 0 0 0 53.52 62.611 A 11.487 11.487 0 0 0 57.397 60.376 A 9.463 9.463 0 0 0 60.506 54.832 A 14.015 14.015 0 0 0 60.742 52.198 A 8.984 8.984 0 0 0 58.203 45.899 Q 55.664 43.164 50.732 42.725 A 6.882 6.882 0 0 1 50.455 42.746 Q 49.988 42.774 49.219 42.774 L 26.563 42.774 Z M 219.043 46.192 L 219.043 80.86 L 215.527 80.86 L 215.527 46.192 A 36.571 36.571 0 0 0 213.935 35.248 A 32.27 32.27 0 0 0 210.889 28.394 Q 206.25 20.557 198.242 16.284 A 36.646 36.646 0 0 0 182.958 12.087 A 43.918 43.918 0 0 0 180.371 12.012 A 34.035 34.035 0 0 0 163.037 16.553 Q 155.176 21.094 150.684 28.833 A 33.017 33.017 0 0 0 146.191 45.703 A 33.615 33.615 0 0 0 148.12 57.105 A 32.229 32.229 0 0 0 151.441 63.877 A 28.472 28.472 0 0 0 153.394 66.529 A 36.103 36.103 0 0 0 161.108 73.487 A 34.716 34.716 0 0 0 170.532 77.93 A 35.639 35.639 0 0 0 180.811 79.444 A 27.7 27.7 0 0 0 191.748 77.246 L 191.748 80.86 Q 186.328 82.764 180.615 82.764 A 40.183 40.183 0 0 1 169.116 81.104 Q 163.525 79.444 158.765 76.197 Q 154.004 72.949 150.391 68.531 Q 146.777 64.112 144.727 58.203 A 37.834 37.834 0 0 1 142.676 45.755 A 42.476 42.476 0 0 1 142.676 45.703 A 37.166 37.166 0 0 1 145.532 31.275 A 36.872 36.872 0 0 1 152.733 20.042 A 35.403 35.403 0 0 1 153.345 19.409 A 35.76 35.76 0 0 1 163.203 12.424 A 41.854 41.854 0 0 1 165.356 11.45 Q 172.412 8.496 180.371 8.496 A 42.623 42.623 0 0 1 193.751 10.571 A 40.141 40.141 0 0 1 195.605 11.231 A 38.269 38.269 0 0 1 205.2 16.527 A 35.033 35.033 0 0 1 207.91 18.824 A 33.853 33.853 0 0 1 215.26 28.974 A 39.697 39.697 0 0 1 216.064 30.762 Q 219.043 37.842 219.043 46.192 Z M 735.498 46.192 L 735.498 80.86 L 731.982 80.86 L 731.982 46.192 A 36.571 36.571 0 0 0 730.39 35.248 A 32.27 32.27 0 0 0 727.344 28.394 Q 722.705 20.557 714.697 16.284 A 36.646 36.646 0 0 0 699.413 12.087 A 43.918 43.918 0 0 0 696.826 12.012 A 34.035 34.035 0 0 0 679.492 16.553 Q 671.631 21.094 667.139 28.833 A 33.017 33.017 0 0 0 662.646 45.703 A 33.615 33.615 0 0 0 664.575 57.105 A 32.229 32.229 0 0 0 667.896 63.877 A 28.472 28.472 0 0 0 669.849 66.529 A 36.103 36.103 0 0 0 677.563 73.487 A 34.716 34.716 0 0 0 686.987 77.93 A 35.639 35.639 0 0 0 697.266 79.444 A 27.7 27.7 0 0 0 708.203 77.246 L 708.203 80.86 Q 702.783 82.764 697.07 82.764 A 40.183 40.183 0 0 1 685.571 81.104 Q 679.98 79.444 675.22 76.197 Q 670.459 72.949 666.846 68.531 Q 663.232 64.112 661.182 58.203 A 37.834 37.834 0 0 1 659.131 45.755 A 42.476 42.476 0 0 1 659.131 45.703 A 37.166 37.166 0 0 1 661.987 31.275 A 36.872 36.872 0 0 1 669.188 20.042 A 35.403 35.403 0 0 1 669.8 19.409 A 35.76 35.76 0 0 1 679.658 12.424 A 41.854 41.854 0 0 1 681.812 11.45 Q 688.867 8.496 696.826 8.496 A 42.623 42.623 0 0 1 710.206 10.571 A 40.141 40.141 0 0 1 712.061 11.231 A 38.269 38.269 0 0 1 721.655 16.527 A 35.033 35.033 0 0 1 724.365 18.824 A 33.853 33.853 0 0 1 731.715 28.974 A 39.697 39.697 0 0 1 732.52 30.762 Q 735.498 37.842 735.498 46.192 Z M 212.012 46.192 L 212.012 80.86 L 208.496 80.86 L 208.496 46.192 A 29.957 29.957 0 0 0 207.394 37.927 A 25.52 25.52 0 0 0 204.81 31.909 Q 201.123 25.684 194.727 22.364 A 29.744 29.744 0 0 0 183.361 19.165 A 36.148 36.148 0 0 0 180.371 19.043 Q 172.803 19.043 166.553 22.632 A 26.152 26.152 0 0 0 156.763 32.324 Q 153.223 38.428 153.223 45.703 Q 153.223 51.953 155.518 57.105 A 25.097 25.097 0 0 0 158.904 62.703 A 21.823 21.823 0 0 0 161.694 65.576 Q 165.576 68.897 170.532 70.728 A 29.699 29.699 0 0 0 180.908 72.559 A 27.138 27.138 0 0 0 191.748 70.264 L 191.748 73.828 A 32.688 32.688 0 0 1 184.696 75.657 A 28.26 28.26 0 0 1 180.811 75.928 A 32.253 32.253 0 0 1 165.283 72.119 A 29.318 29.318 0 0 1 153.955 61.328 A 29.358 29.358 0 0 1 149.711 46.242 A 34.855 34.855 0 0 1 149.707 45.703 A 29.627 29.627 0 0 1 152.075 33.985 A 30.24 30.24 0 0 1 157.996 24.878 A 29.001 29.001 0 0 1 158.496 24.365 A 29.542 29.542 0 0 1 166.816 18.565 A 34.373 34.373 0 0 1 168.262 17.92 A 31.03 31.03 0 0 1 180.371 15.528 Q 189.307 15.528 196.509 19.336 A 28.311 28.311 0 0 1 207.861 30.176 A 30.047 30.047 0 0 1 211.889 43.161 A 36.861 36.861 0 0 1 212.012 46.192 Z M 728.467 46.192 L 728.467 80.86 L 724.951 80.86 L 724.951 46.192 A 29.957 29.957 0 0 0 723.849 37.927 A 25.52 25.52 0 0 0 721.265 31.909 Q 717.578 25.684 711.182 22.364 A 29.744 29.744 0 0 0 699.816 19.165 A 36.148 36.148 0 0 0 696.826 19.043 Q 689.258 19.043 683.008 22.632 A 26.152 26.152 0 0 0 673.218 32.324 Q 669.678 38.428 669.678 45.703 Q 669.678 51.953 671.973 57.105 A 25.097 25.097 0 0 0 675.359 62.703 A 21.823 21.823 0 0 0 678.149 65.576 Q 682.031 68.897 686.987 70.728 A 29.699 29.699 0 0 0 697.363 72.559 A 27.138 27.138 0 0 0 708.203 70.264 L 708.203 73.828 A 32.688 32.688 0 0 1 701.151 75.657 A 28.26 28.26 0 0 1 697.266 75.928 A 32.253 32.253 0 0 1 681.738 72.119 A 29.318 29.318 0 0 1 670.41 61.328 A 29.358 29.358 0 0 1 666.166 46.242 A 34.855 34.855 0 0 1 666.162 45.703 A 29.627 29.627 0 0 1 668.53 33.985 A 30.24 30.24 0 0 1 674.451 24.878 A 29.001 29.001 0 0 1 674.951 24.365 A 29.542 29.542 0 0 1 683.272 18.565 A 34.373 34.373 0 0 1 684.717 17.92 A 31.03 31.03 0 0 1 696.826 15.528 Q 705.762 15.528 712.964 19.336 A 28.311 28.311 0 0 1 724.316 30.176 A 30.047 30.047 0 0 1 728.344 43.161 A 36.861 36.861 0 0 1 728.467 46.192 Z M 294.775 21.582 L 291.943 23.682 Q 287.012 17.578 279.858 14.063 Q 272.705 10.547 264.551 10.547 A 34.403 34.403 0 0 0 250.903 13.33 Q 244.385 16.114 239.673 20.825 A 35.04 35.04 0 0 0 232.533 31.248 A 39.988 39.988 0 0 0 232.178 32.056 A 34.403 34.403 0 0 0 229.395 45.703 A 34.403 34.403 0 0 0 232.178 59.351 Q 234.961 65.869 239.673 70.581 A 35.04 35.04 0 0 0 250.096 77.721 A 39.988 39.988 0 0 0 250.903 78.076 A 34.403 34.403 0 0 0 264.551 80.86 A 34.243 34.243 0 0 0 279.858 77.344 A 35.424 35.424 0 0 0 291.943 67.725 L 294.727 69.873 A 38.902 38.902 0 0 1 281.421 80.493 Q 273.535 84.375 264.551 84.375 A 37.613 37.613 0 0 1 249.536 81.299 A 39.571 39.571 0 0 1 238.894 74.632 A 37.127 37.127 0 0 1 237.207 73.047 A 38.767 38.767 0 0 1 229.348 61.604 A 44.226 44.226 0 0 1 228.955 60.718 A 37.613 37.613 0 0 1 225.879 45.703 A 37.613 37.613 0 0 1 228.955 30.689 A 39.571 39.571 0 0 1 235.622 20.047 A 37.127 37.127 0 0 1 237.207 18.36 A 38.767 38.767 0 0 1 248.65 10.5 A 44.226 44.226 0 0 1 249.536 10.108 A 37.613 37.613 0 0 1 264.551 7.032 Q 273.535 7.032 281.445 10.913 Q 289.355 14.795 294.775 21.582 Z M 487.305 57.813 L 487.305 54.297 L 508.496 54.297 A 16.879 16.879 0 0 0 520.557 49.512 A 15.974 15.974 0 0 0 525.552 38.423 A 21.523 21.523 0 0 0 525.586 37.207 A 14.675 14.675 0 0 0 521.661 27.191 A 20.066 20.066 0 0 0 520.459 25.952 Q 515.332 21.094 508.496 21.094 L 471.289 21.094 L 471.289 80.86 L 467.773 80.86 L 467.773 17.578 L 508.496 17.578 A 20.233 20.233 0 0 1 522.949 23.462 Q 529.102 29.346 529.102 37.207 A 20.866 20.866 0 0 1 527.534 45.391 A 19.718 19.718 0 0 1 523.022 51.905 A 20.114 20.114 0 0 1 508.496 57.813 L 487.305 57.813 Z M 204.98 46.192 L 204.98 80.86 L 201.465 80.86 L 201.465 46.192 A 23.343 23.343 0 0 0 200.634 39.802 A 17.567 17.567 0 0 0 195.557 31.519 A 20.308 20.308 0 0 0 184.535 26.374 A 27.994 27.994 0 0 0 180.371 26.074 A 21.242 21.242 0 0 0 172.712 27.414 A 19.198 19.198 0 0 0 166.016 31.787 A 18.829 18.829 0 0 0 160.255 45.448 A 23.191 23.191 0 0 0 160.254 45.703 A 24.575 24.575 0 0 0 160.743 50.706 A 19.789 19.789 0 0 0 161.987 54.639 A 18.086 18.086 0 0 0 164.18 58.4 A 15.016 15.016 0 0 0 166.699 60.987 Q 169.678 63.379 173.364 64.624 Q 177.051 65.869 181.152 65.869 A 22.849 22.849 0 0 0 191.748 63.282 L 191.748 66.992 A 27.878 27.878 0 0 1 182.947 69.125 A 26.193 26.193 0 0 1 181.104 69.19 Q 176.27 69.19 171.924 67.7 A 24.248 24.248 0 0 1 164.16 63.355 A 19.016 19.016 0 0 1 159.83 58.109 A 23.334 23.334 0 0 1 158.74 55.933 A 23.788 23.788 0 0 1 156.915 48.97 A 29.507 29.507 0 0 1 156.738 45.703 A 22.205 22.205 0 0 1 163.339 29.534 A 26.804 26.804 0 0 1 163.55 29.322 A 22.886 22.886 0 0 1 180.059 22.561 A 29.416 29.416 0 0 1 180.371 22.559 A 29.651 29.651 0 0 1 187.769 23.45 A 24.933 24.933 0 0 1 192.969 25.415 Q 198.535 28.272 201.758 33.692 A 22.981 22.981 0 0 1 204.815 43.069 A 28.833 28.833 0 0 1 204.98 46.192 Z M 721.436 46.192 L 721.436 80.86 L 717.92 80.86 L 717.92 46.192 A 23.343 23.343 0 0 0 717.089 39.802 A 17.567 17.567 0 0 0 712.012 31.519 A 20.308 20.308 0 0 0 700.99 26.374 A 27.994 27.994 0 0 0 696.826 26.074 A 21.242 21.242 0 0 0 689.167 27.414 A 19.198 19.198 0 0 0 682.471 31.787 A 18.829 18.829 0 0 0 676.71 45.448 A 23.191 23.191 0 0 0 676.709 45.703 A 24.575 24.575 0 0 0 677.198 50.706 A 19.789 19.789 0 0 0 678.442 54.639 A 18.086 18.086 0 0 0 680.636 58.4 A 15.016 15.016 0 0 0 683.154 60.987 Q 686.133 63.379 689.819 64.624 Q 693.506 65.869 697.607 65.869 A 22.849 22.849 0 0 0 708.203 63.282 L 708.203 66.992 A 27.878 27.878 0 0 1 699.402 69.125 A 26.193 26.193 0 0 1 697.559 69.19 Q 692.725 69.19 688.379 67.7 A 24.248 24.248 0 0 1 680.615 63.355 A 19.016 19.016 0 0 1 676.285 58.109 A 23.334 23.334 0 0 1 675.195 55.933 A 23.788 23.788 0 0 1 673.37 48.97 A 29.507 29.507 0 0 1 673.193 45.703 A 22.205 22.205 0 0 1 679.794 29.534 A 26.804 26.804 0 0 1 680.005 29.322 A 22.886 22.886 0 0 1 696.514 22.561 A 29.416 29.416 0 0 1 696.826 22.559 A 29.651 29.651 0 0 1 704.224 23.45 A 24.933 24.933 0 0 1 709.424 25.415 Q 714.99 28.272 718.213 33.692 A 22.981 22.981 0 0 1 721.27 43.069 A 28.833 28.833 0 0 1 721.436 46.192 Z M 107.324 80.86 L 107.324 10.547 L 110.84 10.547 L 110.84 63.282 L 136.768 63.282 L 136.768 66.797 L 110.84 66.797 L 110.84 70.313 L 136.768 70.313 L 136.768 73.828 L 110.84 73.828 L 110.84 77.344 L 136.768 77.344 L 136.768 80.86 L 107.324 80.86 Z M 289.307 25.977 L 286.572 28.174 Q 282.617 23.242 276.855 20.41 Q 271.094 17.578 264.551 17.578 A 27.493 27.493 0 0 0 253.638 19.8 A 28.407 28.407 0 0 0 245.253 25.224 A 27.147 27.147 0 0 0 244.653 25.806 A 28.161 28.161 0 0 0 238.788 34.467 A 31.911 31.911 0 0 0 238.647 34.79 A 27.493 27.493 0 0 0 236.426 45.703 A 27.493 27.493 0 0 0 238.647 56.616 A 28.407 28.407 0 0 0 244.072 65.001 A 27.147 27.147 0 0 0 244.653 65.601 A 28.161 28.161 0 0 0 253.314 71.466 A 31.911 31.911 0 0 0 253.638 71.607 A 27.493 27.493 0 0 0 264.551 73.828 Q 271.094 73.828 276.855 70.996 Q 282.617 68.164 286.572 63.233 L 289.209 65.528 A 31.63 31.63 0 0 1 278.32 74.195 A 30.951 30.951 0 0 1 264.551 77.344 A 30.878 30.878 0 0 1 252.246 74.829 A 32.416 32.416 0 0 1 243.813 69.622 A 30.17 30.17 0 0 1 242.163 68.091 A 31.566 31.566 0 0 1 235.828 58.914 A 36.155 36.155 0 0 1 235.425 58.008 A 30.878 30.878 0 0 1 232.91 45.703 A 30.878 30.878 0 0 1 235.425 33.399 A 32.416 32.416 0 0 1 240.632 24.966 A 30.17 30.17 0 0 1 242.163 23.316 A 31.566 31.566 0 0 1 251.341 16.981 A 36.155 36.155 0 0 1 252.246 16.577 A 30.878 30.878 0 0 1 264.551 14.063 A 31.013 31.013 0 0 1 278.394 17.237 A 31.578 31.578 0 0 1 289.307 25.977 Z M 487.305 50.782 L 487.305 47.266 L 508.496 47.266 A 11.083 11.083 0 0 0 512.434 46.586 A 10.022 10.022 0 0 0 515.625 44.629 A 8.603 8.603 0 0 0 518.296 39.859 A 12.913 12.913 0 0 0 518.555 37.207 A 7.786 7.786 0 0 0 516.838 32.346 A 11.274 11.274 0 0 0 515.503 30.908 A 10.097 10.097 0 0 0 508.496 28.125 L 478.32 28.125 L 478.32 80.86 L 474.805 80.86 L 474.805 24.61 L 508.496 24.61 Q 513.916 24.61 517.993 28.418 A 13.856 13.856 0 0 1 520.614 31.673 A 11 11 0 0 1 522.07 37.207 A 15.724 15.724 0 0 1 521.491 41.587 A 11.914 11.914 0 0 1 518.115 47.095 Q 514.16 50.782 508.496 50.782 L 487.305 50.782 Z M 618.262 80.86 L 577.686 80.86 L 577.686 10.547 L 618.262 10.547 A 33.627 33.627 0 0 1 635.571 15.259 A 35.441 35.441 0 0 1 648.364 28.052 Q 653.125 36.133 653.125 45.606 A 34.437 34.437 0 0 1 650.317 59.326 A 36.244 36.244 0 0 1 644.633 68.592 A 33.639 33.639 0 0 1 642.798 70.581 Q 638.086 75.293 631.641 78.076 Q 625.195 80.86 618.262 80.86 Z M 24.609 24.61 L 24.609 80.86 L 21.094 80.86 L 21.094 21.094 L 49.219 21.094 A 9.04 9.04 0 0 1 52.361 21.625 A 8.11 8.11 0 0 1 54.883 23.12 A 6.814 6.814 0 0 1 56.599 25.308 A 6.497 6.497 0 0 1 57.227 28.174 A 11.489 11.489 0 0 1 57.043 30.303 Q 56.591 32.693 55.029 33.96 A 7.649 7.649 0 0 1 52.015 35.425 Q 50.743 35.742 49.219 35.742 L 26.563 35.742 L 26.563 32.227 L 49.219 32.227 A 7.255 7.255 0 0 0 50.914 32.047 Q 53.184 31.499 53.612 29.29 A 5.875 5.875 0 0 0 53.711 28.174 A 3.478 3.478 0 0 0 53.501 26.942 A 3.049 3.049 0 0 0 52.441 25.562 A 4.627 4.627 0 0 0 50.614 24.749 A 6.618 6.618 0 0 0 49.219 24.61 L 24.609 24.61 Z M 766.504 53.565 L 786.914 10.547 L 790.43 10.547 L 768.311 57.129 L 768.311 80.86 L 764.795 80.86 L 764.795 57.129 L 741.211 10.547 L 744.727 10.547 L 766.504 53.565 Z M 194.434 80.86 L 194.434 46.192 A 16.238 16.238 0 0 0 193.978 42.229 A 11.009 11.009 0 0 0 190.576 36.524 Q 186.719 33.106 180.371 33.106 A 12.844 12.844 0 0 0 171.143 36.817 A 12.607 12.607 0 0 0 168.22 40.963 A 11.963 11.963 0 0 0 167.285 45.703 A 18.868 18.868 0 0 0 167.48 48.48 A 14.349 14.349 0 0 0 168.066 50.952 A 13.059 13.059 0 0 0 168.955 53.016 A 9.879 9.879 0 0 0 170.19 54.81 A 11.367 11.367 0 0 0 173.389 57.349 A 14.703 14.703 0 0 0 177.271 58.789 A 19.568 19.568 0 0 0 180.426 59.2 A 22.925 22.925 0 0 0 181.592 59.229 Q 187.158 59.229 191.748 56.494 L 191.748 60.01 Q 187.012 62.5 181.543 62.5 A 23.112 23.112 0 0 1 176.503 61.965 A 20.721 20.721 0 0 1 174.927 61.548 A 17.963 17.963 0 0 1 169.287 58.667 A 12.378 12.378 0 0 1 166.236 55.255 A 15.8 15.8 0 0 1 165.259 53.394 A 16.945 16.945 0 0 1 163.997 48.946 A 22.273 22.273 0 0 1 163.77 45.703 A 15.76 15.76 0 0 1 165.528 38.253 A 16.191 16.191 0 0 1 168.506 34.278 Q 173.242 29.59 180.371 29.59 A 22.788 22.788 0 0 1 185.95 30.238 A 16.371 16.371 0 0 1 193.091 34.009 A 14.522 14.522 0 0 1 197.636 42.465 A 21.21 21.21 0 0 1 197.949 46.192 L 197.949 80.86 L 194.434 80.86 Z M 710.889 80.86 L 710.889 46.192 A 16.238 16.238 0 0 0 710.433 42.229 A 11.009 11.009 0 0 0 707.031 36.524 Q 703.174 33.106 696.826 33.106 A 12.844 12.844 0 0 0 687.598 36.817 A 12.607 12.607 0 0 0 684.675 40.963 A 11.963 11.963 0 0 0 683.74 45.703 A 18.868 18.868 0 0 0 683.936 48.48 A 14.349 14.349 0 0 0 684.521 50.952 A 13.059 13.059 0 0 0 685.41 53.016 A 9.879 9.879 0 0 0 686.646 54.81 A 11.367 11.367 0 0 0 689.844 57.349 A 14.703 14.703 0 0 0 693.726 58.789 A 19.568 19.568 0 0 0 696.881 59.2 A 22.925 22.925 0 0 0 698.047 59.229 Q 703.613 59.229 708.203 56.494 L 708.203 60.01 Q 703.467 62.5 697.998 62.5 A 23.112 23.112 0 0 1 692.958 61.965 A 20.721 20.721 0 0 1 691.382 61.548 A 17.963 17.963 0 0 1 685.742 58.667 A 12.378 12.378 0 0 1 682.691 55.255 A 15.8 15.8 0 0 1 681.714 53.394 A 16.945 16.945 0 0 1 680.452 48.946 A 22.273 22.273 0 0 1 680.225 45.703 A 15.76 15.76 0 0 1 681.983 38.253 A 16.191 16.191 0 0 1 684.961 34.278 Q 689.697 29.59 696.826 29.59 A 22.788 22.788 0 0 1 702.405 30.238 A 16.371 16.371 0 0 1 709.546 34.009 A 14.522 14.522 0 0 1 714.091 42.465 A 21.21 21.21 0 0 1 714.404 46.192 L 714.404 80.86 L 710.889 80.86 Z M 581.201 14.063 L 581.201 77.344 L 618.262 77.344 Q 626.611 77.344 633.789 73.12 A 31.671 31.671 0 0 0 645.239 61.573 Q 649.512 54.248 649.512 45.606 Q 649.512 37.11 645.239 29.81 Q 640.967 22.51 633.765 18.286 Q 626.563 14.063 618.262 14.063 L 581.201 14.063 Z M 283.789 30.371 L 281.006 32.52 A 20.556 20.556 0 0 0 273.755 26.709 Q 269.434 24.61 264.551 24.61 A 20.259 20.259 0 0 0 249.827 30.619 A 24.575 24.575 0 0 0 249.634 30.811 Q 243.457 37.012 243.457 45.703 A 20.321 20.321 0 0 0 249.442 60.402 A 24.812 24.812 0 0 0 249.634 60.596 A 20.261 20.261 0 0 0 264.278 66.796 A 24.469 24.469 0 0 0 264.551 66.797 Q 269.434 66.797 273.779 64.673 A 20.741 20.741 0 0 0 281.055 58.838 L 283.74 61.084 Q 280.322 65.381 275.293 67.847 A 24.079 24.079 0 0 1 264.551 70.313 A 24.13 24.13 0 0 1 252.197 67.017 Q 246.533 63.721 243.237 58.057 A 24.13 24.13 0 0 1 239.941 45.703 A 24.13 24.13 0 0 1 243.237 33.35 Q 246.533 27.686 252.197 24.39 A 24.13 24.13 0 0 1 264.551 21.094 A 24.233 24.233 0 0 1 275.317 23.56 Q 280.371 26.026 283.789 30.371 Z M 485.352 35.157 L 485.352 80.86 L 481.836 80.86 L 481.836 31.641 L 508.496 31.641 A 7.584 7.584 0 0 1 510.95 32.025 A 6.569 6.569 0 0 1 513.135 33.277 A 5.841 5.841 0 0 1 514.359 34.7 A 4.79 4.79 0 0 1 515.039 37.207 A 9.419 9.419 0 0 1 514.715 39.797 Q 513.883 42.7 510.919 43.471 A 9.64 9.64 0 0 1 508.496 43.75 L 487.305 43.75 L 487.305 40.235 L 508.496 40.235 Q 510.898 40.235 511.394 38.328 A 4.46 4.46 0 0 0 511.523 37.207 A 1.479 1.479 0 0 0 511.155 36.237 Q 510.947 35.987 510.62 35.767 Q 509.717 35.157 508.496 35.157 L 485.352 35.157 Z M 618.262 73.828 L 584.717 73.828 L 584.717 17.578 L 618.262 17.578 Q 625.635 17.578 632.007 21.338 Q 638.379 25.098 642.139 31.568 A 27.456 27.456 0 0 1 645.898 45.606 A 27.899 27.899 0 0 1 642.139 59.79 A 27.903 27.903 0 0 1 632.007 70.069 Q 625.635 73.828 618.262 73.828 Z M 588.232 21.094 L 588.232 70.313 L 618.262 70.313 A 23.042 23.042 0 0 0 630.225 67.041 A 24.255 24.255 0 0 0 639.014 58.057 A 24.624 24.624 0 0 0 642.285 45.606 A 24.087 24.087 0 0 0 639.014 33.35 A 24.493 24.493 0 0 0 630.2 24.39 Q 624.658 21.094 618.262 21.094 L 588.232 21.094 Z M 410.01 0 L 410.01 80.86 L 406.494 80.86 L 406.494 0 L 410.01 0 Z M 402.979 0 L 402.979 80.86 L 399.463 80.86 L 399.463 0 L 402.979 0 Z M 395.947 0 L 395.947 80.86 L 392.432 80.86 L 392.432 0 L 395.947 0 Z M 332.08 45.996 L 351.709 10.547 L 347.803 10.547 L 328.174 45.996 L 347.51 80.86 L 351.416 80.86 L 332.08 45.996 Z M 355.713 45.996 L 375.293 10.547 L 371.387 10.547 L 351.807 45.996 L 371.094 80.86 L 375 80.86 L 355.713 45.996 Z M 347.852 45.996 L 367.432 10.547 L 363.525 10.547 L 343.945 45.996 L 363.232 80.86 L 367.139 80.86 L 347.852 45.996 Z M 339.99 45.996 L 359.57 10.547 L 355.664 10.547 L 336.084 45.996 L 355.371 80.86 L 359.277 80.86 L 339.99 45.996 Z M 278.32 34.766 L 275.488 36.914 Q 271.24 31.641 264.551 31.641 Q 258.74 31.641 254.614 35.767 A 13.529 13.529 0 0 0 250.489 45.522 A 16.258 16.258 0 0 0 250.488 45.703 Q 250.488 51.514 254.614 55.64 A 13.529 13.529 0 0 0 264.37 59.765 A 16.258 16.258 0 0 0 264.551 59.766 A 13.61 13.61 0 0 0 270.679 58.35 Q 273.535 56.934 275.537 54.444 L 278.271 56.739 Q 275.83 59.815 272.217 61.548 Q 268.604 63.282 264.551 63.282 A 16.914 16.914 0 0 1 252.286 58.29 A 20.495 20.495 0 0 1 252.124 58.13 Q 246.973 52.979 246.973 45.703 A 16.914 16.914 0 0 1 251.964 33.438 A 20.495 20.495 0 0 1 252.124 33.277 Q 257.275 28.125 264.551 28.125 Q 268.652 28.125 272.266 29.907 Q 275.879 31.69 278.32 34.766 Z M 618.262 66.797 L 591.748 66.797 L 591.748 24.61 L 618.262 24.61 A 19.344 19.344 0 0 1 632.358 30.5 A 24.664 24.664 0 0 1 632.642 30.786 Q 638.672 36.963 638.672 45.606 Q 638.672 54.444 632.666 60.62 A 20.272 20.272 0 0 1 625.61 65.44 A 19.693 19.693 0 0 1 618.262 66.797 Z M 785.889 57.129 L 808.008 10.547 L 811.523 10.547 L 789.404 57.129 L 789.404 80.86 L 785.889 80.86 L 785.889 57.129 Z M 778.857 57.129 L 800.977 10.547 L 804.492 10.547 L 782.373 57.129 L 782.373 80.86 L 778.857 80.86 L 778.857 57.129 Z M 771.826 57.129 L 793.945 10.547 L 797.461 10.547 L 775.342 57.129 L 775.342 80.86 L 771.826 80.86 L 771.826 57.129 Z M 86.23 80.86 L 86.23 10.547 L 89.746 10.547 L 89.746 80.86 L 86.23 80.86 Z M 100.293 80.86 L 100.293 10.547 L 103.809 10.547 L 103.809 80.86 L 100.293 80.86 Z M 93.262 80.86 L 93.262 10.547 L 96.777 10.547 L 96.777 80.86 L 93.262 80.86 Z M 322.51 80.86 L 322.51 10.547 L 326.025 10.547 L 326.025 80.86 L 322.51 80.86 Z M 315.479 80.86 L 315.479 10.547 L 318.994 10.547 L 318.994 80.86 L 315.479 80.86 Z M 308.447 80.86 L 308.447 10.547 L 311.963 10.547 L 311.963 80.86 L 308.447 80.86 Z M 301.416 80.86 L 301.416 10.547 L 304.932 10.547 L 304.932 80.86 L 301.416 80.86 Z M 564.99 80.86 L 564.99 10.547 L 568.506 10.547 L 568.506 80.86 L 564.99 80.86 Z M 557.959 80.86 L 557.959 10.547 L 561.475 10.547 L 561.475 80.86 L 557.959 80.86 Z M 550.928 80.86 L 550.928 10.547 L 554.443 10.547 L 554.443 80.86 L 550.928 80.86 Z M 543.896 80.86 L 543.896 10.547 L 547.412 10.547 L 547.412 80.86 L 543.896 80.86 Z M 595.264 28.125 L 595.264 63.282 L 618.262 63.282 Q 625.195 63.282 630.127 58.13 A 17.442 17.442 0 0 0 635.059 45.606 A 17.134 17.134 0 0 0 630.103 33.252 A 16.86 16.86 0 0 0 624.572 29.367 A 15.959 15.959 0 0 0 618.262 28.125 L 595.264 28.125 Z M 49.219 49.512 L 26.563 49.512 L 26.563 45.996 L 49.219 45.996 A 14.008 14.008 0 0 1 52.191 46.283 Q 56.482 47.219 57.117 51.209 A 9.409 9.409 0 0 1 57.227 52.686 Q 57.227 55.179 56.261 56.749 A 4.911 4.911 0 0 1 55.029 58.106 Q 53.041 59.608 49.894 59.751 A 14.876 14.876 0 0 1 49.219 59.766 L 26.563 59.766 L 26.563 56.25 L 49.219 56.25 A 8.309 8.309 0 0 0 50.858 56.103 Q 53.711 55.526 53.711 52.686 Q 53.711 50.782 52.563 50.147 A 4.183 4.183 0 0 0 51.651 49.785 Q 50.735 49.532 49.432 49.514 A 14.686 14.686 0 0 0 49.219 49.512 Z M 618.262 59.766 L 598.779 59.766 L 598.779 31.641 L 618.262 31.641 A 12.291 12.291 0 0 1 627.258 35.428 A 15.888 15.888 0 0 1 627.563 35.742 Q 631.445 39.844 631.445 45.606 Q 631.445 51.563 627.588 55.664 A 13.035 13.035 0 0 1 623.255 58.772 A 12.461 12.461 0 0 1 618.262 59.766 Z M 767.48 47.559 L 748.291 10.547 L 751.807 10.547 L 769.238 43.701 L 767.48 47.559 Z M 602.295 35.157 L 602.295 56.25 L 618.262 56.25 A 8.757 8.757 0 0 0 624.714 53.501 A 11.535 11.535 0 0 0 625.024 53.174 A 10.666 10.666 0 0 0 627.815 46.299 A 13.865 13.865 0 0 0 627.832 45.606 A 10.558 10.558 0 0 0 625.024 38.233 A 9.69 9.69 0 0 0 622.244 36.077 A 8.7 8.7 0 0 0 618.262 35.157 L 602.295 35.157 Z M 770.947 39.844 L 755.322 10.547 L 758.887 10.547 L 772.754 35.987 L 770.947 39.844 Z M 774.512 32.178 L 762.451 10.547 L 765.967 10.547 L 776.27 28.321 L 774.512 32.178 Z" vector-effect="non-scaling-stroke"/></g></svg>