<svg width="595.752" height="91.408" viewBox="0 0 595.752 91.408" xmlns="http://www.w3.org/2000/svg"><g id="svgGroup" stroke-linecap="round" fill-rule="evenodd" font-size="9pt" stroke="#c4c4c4" stroke-width="0.25mm" fill="#ffffff" style="stroke:#c4c4c4;stroke-width:0.25mm;fill:#ffffff"><path d="M 236.963 57.96 L 236.963 66.798 L 270.605 66.798 L 270.605 70.314 L 236.963 70.314 L 236.963 73.829 L 270.605 73.829 L 270.605 77.345 L 236.963 77.345 L 236.963 80.861 L 270.605 80.861 L 270.605 84.376 L 233.447 84.376 L 233.447 14.064 L 270.605 14.064 L 270.605 17.579 L 236.963 17.579 L 236.963 21.095 L 270.605 21.095 L 270.605 24.611 L 236.963 24.611 L 236.963 28.126 L 270.605 28.126 L 270.605 31.642 L 236.963 31.642 L 236.963 40.382 L 268.652 40.382 L 268.652 43.898 L 236.963 43.898 L 236.963 47.413 L 268.652 47.413 L 268.652 50.929 L 236.963 50.929 L 236.963 54.445 L 268.652 54.445 L 268.652 57.96 L 236.963 57.96 Z M 288.916 55.031 L 288.916 33.839 A 35.638 35.638 0 0 1 290.152 24.324 A 31.528 31.528 0 0 1 291.821 19.703 Q 294.727 13.283 299.707 9.01 A 35.701 35.701 0 0 1 309.529 3.073 A 41.394 41.394 0 0 1 311.377 2.37 A 42.054 42.054 0 0 1 324.458 0.016 A 47.733 47.733 0 0 1 325.635 0.001 A 51.467 51.467 0 0 1 338.053 1.461 A 45.921 45.921 0 0 1 342.651 2.858 A 40.267 40.267 0 0 1 350.712 6.79 A 33.346 33.346 0 0 1 355.859 10.841 L 353.027 12.941 A 31.139 31.139 0 0 0 345.309 7.734 A 39.111 39.111 0 0 0 341.04 5.983 A 45.77 45.77 0 0 0 328.691 3.604 A 53.262 53.262 0 0 0 325.635 3.517 A 41.421 41.421 0 0 0 315.997 4.61 A 37.07 37.07 0 0 0 312.744 5.543 A 34.006 34.006 0 0 0 304.559 9.544 A 30.939 30.939 0 0 0 302.197 11.305 A 25.406 25.406 0 0 0 295.738 19.409 A 30.123 30.123 0 0 0 295.044 20.851 A 29.744 29.744 0 0 0 292.638 29.91 A 36.53 36.53 0 0 0 292.432 33.839 L 292.432 55.031 A 30.979 30.979 0 0 0 293.244 62.225 A 27.262 27.262 0 0 0 294.189 65.358 A 26.127 26.127 0 0 0 297.337 71.413 A 23.398 23.398 0 0 0 299.072 73.585 A 29.699 29.699 0 0 0 306.403 79.455 A 33.208 33.208 0 0 0 306.47 79.494 A 34.528 34.528 0 0 0 315.131 82.957 A 38.785 38.785 0 0 0 315.845 83.131 A 46.168 46.168 0 0 0 324.855 84.298 A 52.423 52.423 0 0 0 326.611 84.328 A 38.779 38.779 0 0 0 337.308 82.875 A 36.232 36.232 0 0 0 338.55 82.496 A 33.512 33.512 0 0 0 344.87 79.73 A 28.327 28.327 0 0 0 348.34 77.394 A 24.036 24.036 0 0 0 354.932 69.337 Q 357.373 64.552 357.373 58.937 A 23.215 23.215 0 0 0 355.029 48.585 A 24.143 24.143 0 0 0 350.784 42.439 A 22.215 22.215 0 0 0 348.853 40.651 A 29.166 29.166 0 0 0 340.137 35.744 A 29.478 29.478 0 0 0 330.078 33.986 A 44.304 44.304 0 0 0 319.914 35.121 A 39.41 39.41 0 0 0 316.211 36.183 L 316.211 32.57 A 50.816 50.816 0 0 1 329.354 30.673 A 56.604 56.604 0 0 1 330.273 30.665 A 33.365 33.365 0 0 1 341.821 32.692 Q 347.363 34.718 351.587 38.307 Q 355.811 41.896 358.35 47.267 A 26.84 26.84 0 0 1 360.885 58.446 A 30.985 30.985 0 0 1 360.889 58.937 A 26.095 26.095 0 0 1 358.179 70.729 A 27.183 27.183 0 0 1 350.83 79.909 Q 346.191 83.644 339.917 85.744 A 41.389 41.389 0 0 1 327.487 87.835 A 46.626 46.626 0 0 1 326.611 87.843 A 49.719 49.719 0 0 1 316.298 86.805 A 43.564 43.564 0 0 1 311.938 85.646 A 38.854 38.854 0 0 1 303.048 81.531 A 34.791 34.791 0 0 1 299.976 79.347 A 28.609 28.609 0 0 1 291.893 69.02 A 32.924 32.924 0 0 1 291.87 68.971 A 31.275 31.275 0 0 1 289.038 58.088 A 37.729 37.729 0 0 1 288.916 55.031 Z M 145.361 49.708 L 145.361 84.376 L 141.846 84.376 L 141.846 49.708 A 36.571 36.571 0 0 0 140.253 38.765 A 32.27 32.27 0 0 0 137.207 31.911 Q 132.568 24.074 124.561 19.801 A 36.646 36.646 0 0 0 109.277 15.604 A 43.918 43.918 0 0 0 106.689 15.529 A 34.035 34.035 0 0 0 89.355 20.07 Q 81.494 24.611 77.002 32.35 A 33.017 33.017 0 0 0 72.51 49.22 A 33.615 33.615 0 0 0 74.438 60.621 A 32.229 32.229 0 0 0 77.76 67.394 A 28.472 28.472 0 0 0 79.712 70.045 A 36.103 36.103 0 0 0 87.427 77.003 A 34.716 34.716 0 0 0 96.851 81.447 A 35.639 35.639 0 0 0 107.129 82.96 A 27.7 27.7 0 0 0 118.066 80.763 L 118.066 84.376 Q 112.646 86.281 106.934 86.281 A 40.183 40.183 0 0 1 95.435 84.62 Q 89.844 82.96 85.083 79.713 Q 80.322 76.466 76.709 72.047 Q 73.096 67.628 71.045 61.72 A 37.834 37.834 0 0 1 68.994 49.272 A 42.476 42.476 0 0 1 68.994 49.22 A 37.166 37.166 0 0 1 71.851 34.791 A 36.872 36.872 0 0 1 79.052 23.559 A 35.403 35.403 0 0 1 79.663 22.926 A 35.76 35.76 0 0 1 89.521 15.94 A 41.854 41.854 0 0 1 91.675 14.967 Q 98.73 12.013 106.689 12.013 A 42.623 42.623 0 0 1 120.07 14.088 A 40.141 40.141 0 0 1 121.924 14.747 A 38.269 38.269 0 0 1 131.519 20.044 A 35.033 35.033 0 0 1 134.229 22.34 A 33.853 33.853 0 0 1 141.578 32.49 A 39.697 39.697 0 0 1 142.383 34.279 Q 145.361 41.359 145.361 49.708 Z M 295.947 55.031 L 295.947 33.839 A 29.71 29.71 0 0 1 296.731 26.9 A 25.103 25.103 0 0 1 298.291 22.34 A 23.957 23.957 0 0 1 302.103 16.378 A 21.605 21.605 0 0 1 304.688 13.893 A 28.906 28.906 0 0 1 312.465 9.409 A 33.528 33.528 0 0 1 314.111 8.815 Q 319.482 7.033 325.635 7.033 A 46.342 46.342 0 0 1 335.042 7.958 A 40.078 40.078 0 0 1 339.6 9.181 A 33.897 33.897 0 0 1 345.772 11.912 A 26.941 26.941 0 0 1 350.391 15.236 L 347.656 17.433 Q 343.75 14.113 338.013 12.33 A 39.957 39.957 0 0 0 328.899 10.66 A 47.098 47.098 0 0 0 325.635 10.548 Q 320.215 10.548 315.479 12.086 A 26.808 26.808 0 0 0 309.141 15.07 A 24.215 24.215 0 0 0 307.153 16.505 A 19.721 19.721 0 0 0 301.81 23.233 A 23.072 23.072 0 0 0 301.514 23.854 A 22.598 22.598 0 0 0 299.595 31.105 A 27.7 27.7 0 0 0 299.463 33.839 L 299.463 55.031 Q 299.463 60.548 301.587 64.87 A 18.535 18.535 0 0 0 307.446 71.876 A 26.406 26.406 0 0 0 314.113 75.319 A 31.042 31.042 0 0 0 316.04 75.929 A 36.672 36.672 0 0 0 323.082 77.159 A 44.546 44.546 0 0 0 326.611 77.296 Q 336.719 77.296 343.53 72.291 Q 350.162 67.419 350.337 59.376 A 20.151 20.151 0 0 0 350.342 58.937 A 18.59 18.59 0 0 0 349.569 53.485 A 15.825 15.825 0 0 0 347.437 49.074 A 17.506 17.506 0 0 0 339.99 42.872 A 23.779 23.779 0 0 0 332.164 40.953 A 28.43 28.43 0 0 0 329.98 40.87 A 41.578 41.578 0 0 0 316.211 43.165 L 316.211 39.601 Q 323.096 37.501 330.078 37.501 A 26.855 26.855 0 0 1 339.229 39.039 A 25.178 25.178 0 0 1 342.017 40.236 A 21.681 21.681 0 0 1 350.659 47.902 A 19.846 19.846 0 0 1 353.857 58.937 A 19.092 19.092 0 0 1 350.171 70.485 Q 346.484 75.538 340.308 78.175 A 33.03 33.03 0 0 1 330.343 80.642 A 40.18 40.18 0 0 1 326.611 80.812 Q 320.215 80.812 314.722 79.152 A 32.393 32.393 0 0 1 307.553 76.038 A 28.871 28.871 0 0 1 305.005 74.342 Q 300.781 71.193 298.364 66.237 A 23.891 23.891 0 0 1 296.138 58.444 A 29.74 29.74 0 0 1 295.947 55.031 Z M 138.33 49.708 L 138.33 84.376 L 134.814 84.376 L 134.814 49.708 A 29.957 29.957 0 0 0 133.712 41.444 A 25.52 25.52 0 0 0 131.128 35.426 Q 127.441 29.201 121.045 25.88 A 29.744 29.744 0 0 0 109.679 22.682 A 36.148 36.148 0 0 0 106.689 22.56 Q 99.121 22.56 92.871 26.149 A 26.152 26.152 0 0 0 83.081 35.841 Q 79.541 41.945 79.541 49.22 Q 79.541 55.47 81.836 60.621 A 25.097 25.097 0 0 0 85.222 66.22 A 21.823 21.823 0 0 0 88.013 69.093 Q 91.895 72.413 96.851 74.245 A 29.699 29.699 0 0 0 107.227 76.076 A 27.138 27.138 0 0 0 118.066 73.781 L 118.066 77.345 A 32.688 32.688 0 0 1 111.015 79.174 A 28.26 28.26 0 0 1 107.129 79.445 A 32.253 32.253 0 0 1 91.602 75.636 A 29.318 29.318 0 0 1 80.273 64.845 A 29.358 29.358 0 0 1 76.03 49.759 A 34.855 34.855 0 0 1 76.025 49.22 A 29.627 29.627 0 0 1 78.394 37.501 A 30.24 30.24 0 0 1 84.314 28.395 A 29.001 29.001 0 0 1 84.814 27.882 A 29.542 29.542 0 0 1 93.135 22.081 A 34.373 34.373 0 0 1 94.58 21.437 A 31.03 31.03 0 0 1 106.689 19.044 Q 115.625 19.044 122.827 22.853 A 28.311 28.311 0 0 1 134.18 33.693 A 30.047 30.047 0 0 1 138.207 46.678 A 36.861 36.861 0 0 1 138.33 49.708 Z M 302.979 55.031 L 302.979 33.839 Q 302.979 27.443 306.079 22.877 Q 309.18 18.312 314.209 16.188 A 26.636 26.636 0 0 1 321.03 14.363 A 34.319 34.319 0 0 1 325.635 14.064 A 44.431 44.431 0 0 1 333.133 14.656 Q 337.146 15.344 340.359 16.832 A 21.255 21.255 0 0 1 344.873 19.63 L 342.09 21.779 A 19.683 19.683 0 0 0 336.327 18.983 Q 333.641 18.152 330.39 17.813 A 45.91 45.91 0 0 0 325.635 17.579 Q 317.285 17.579 311.89 21.803 Q 306.494 26.027 306.494 33.839 L 306.494 55.031 A 18.459 18.459 0 0 0 306.81 58.527 A 13.702 13.702 0 0 0 308.032 62.16 Q 309.57 65.187 312.402 66.92 A 20.635 20.635 0 0 0 317.615 69.17 A 23.876 23.876 0 0 0 318.75 69.459 A 31.066 31.066 0 0 0 322.843 70.1 A 41.175 41.175 0 0 0 326.611 70.265 A 29.022 29.022 0 0 0 331.681 69.846 Q 335.614 69.148 338.574 67.286 A 10.876 10.876 0 0 0 341.414 64.777 Q 343.222 62.45 343.306 59.253 A 11.945 11.945 0 0 0 343.311 58.937 A 12.084 12.084 0 0 0 342.8 55.331 A 9.368 9.368 0 0 0 339.355 50.514 A 14.756 14.756 0 0 0 332.462 47.745 A 19.506 19.506 0 0 0 329.736 47.56 A 35.479 35.479 0 0 0 316.211 50.148 L 316.211 46.437 A 42.648 42.648 0 0 1 329.785 44.24 Q 336.914 44.24 341.87 48.17 A 12.714 12.714 0 0 1 346.767 57.476 A 17.622 17.622 0 0 1 346.826 58.937 A 13.131 13.131 0 0 1 345.643 64.58 Q 344.372 67.292 341.733 69.315 A 16.652 16.652 0 0 1 341.064 69.801 A 21.761 21.761 0 0 1 333.191 73.123 Q 330.191 73.77 326.722 73.78 A 37.853 37.853 0 0 1 326.611 73.781 A 39.717 39.717 0 0 1 321.255 73.433 A 32.312 32.312 0 0 1 317.432 72.682 A 25.544 25.544 0 0 1 312.208 70.71 A 22.297 22.297 0 0 1 309.961 69.386 A 15.181 15.181 0 0 1 304.834 63.527 A 16.976 16.976 0 0 1 303.218 58.354 A 22.232 22.232 0 0 1 302.979 55.031 Z M 29.395 38.673 L 34.961 38.673 A 26.054 26.054 0 0 1 41.495 39.447 A 18.084 18.084 0 0 1 50.464 44.728 A 20.899 20.899 0 0 1 55.988 57.837 A 27.414 27.414 0 0 1 56.055 59.767 Q 56.055 68.898 49.561 74.879 A 21.33 21.33 0 0 1 40.895 79.633 Q 37.717 80.554 33.936 80.784 A 42.586 42.586 0 0 1 31.348 80.861 A 50.314 50.314 0 0 1 21.09 79.845 A 44.131 44.131 0 0 1 16.748 78.712 A 36.401 36.401 0 0 1 10.711 76.219 A 27.614 27.614 0 0 1 5.469 72.658 L 8.203 70.46 Q 12.207 73.732 18.286 75.538 Q 24.365 77.345 31.348 77.345 A 34.57 34.57 0 0 0 37.312 76.863 Q 43.352 75.804 47.095 72.413 A 16.156 16.156 0 0 0 52.523 60.602 A 21.238 21.238 0 0 0 52.539 59.767 A 20.841 20.841 0 0 0 51.696 53.708 A 16.721 16.721 0 0 0 47.974 47.169 A 14.767 14.767 0 0 0 40.511 42.832 Q 37.965 42.189 34.912 42.189 L 29.395 42.189 A 20.673 20.673 0 0 1 25.287 41.807 Q 21.152 40.968 18.701 38.283 A 13.401 13.401 0 0 1 15.419 31.457 A 18.857 18.857 0 0 1 15.137 28.126 Q 15.137 21.876 19.556 17.97 A 13.859 13.859 0 0 1 24.268 15.3 Q 27.841 14.064 32.813 14.064 Q 39.014 14.064 44.336 15.504 Q 49.378 16.869 52.754 19.35 A 18.375 18.375 0 0 1 53.125 19.63 L 50.342 21.779 Q 44.238 17.579 32.813 17.579 A 29.677 29.677 0 0 0 28.98 17.809 Q 24.769 18.359 22.363 20.227 A 8.477 8.477 0 0 0 22.046 20.485 A 9.443 9.443 0 0 0 18.673 27.397 A 12.648 12.648 0 0 0 18.652 28.126 Q 18.652 32.516 20.769 35.304 A 9.247 9.247 0 0 0 21.167 35.792 A 7.564 7.564 0 0 0 24.29 37.884 Q 25.545 38.353 27.109 38.543 A 18.94 18.94 0 0 0 29.395 38.673 Z M 29.395 45.704 L 34.766 45.704 A 20.425 20.425 0 0 1 38.873 46.091 Q 41.312 46.592 43.165 47.744 A 10.609 10.609 0 0 1 45.459 49.66 Q 49.023 53.615 49.023 59.767 Q 49.023 66.017 44.604 69.923 A 13.859 13.859 0 0 1 39.892 72.594 Q 36.319 73.829 31.348 73.829 A 47.248 47.248 0 0 1 23.93 73.267 A 39.979 39.979 0 0 1 19.8 72.389 A 30.479 30.479 0 0 1 15.49 70.894 Q 12.94 69.776 10.986 68.263 L 13.77 66.115 Q 18.13 69.114 25.231 69.971 A 51.181 51.181 0 0 0 31.348 70.314 A 29.677 29.677 0 0 0 35.18 70.084 Q 39.391 69.534 41.798 67.667 A 8.477 8.477 0 0 0 42.114 67.409 A 9.443 9.443 0 0 0 45.487 60.496 A 12.648 12.648 0 0 0 45.508 59.767 A 14.381 14.381 0 0 0 45.151 56.472 A 9.944 9.944 0 0 0 42.969 52.125 A 7.668 7.668 0 0 0 39.78 49.998 Q 38.529 49.536 36.979 49.349 A 18.848 18.848 0 0 0 34.717 49.22 L 29.395 49.22 Q 19.385 49.22 13.745 43.239 A 20.513 20.513 0 0 1 8.23 30.768 A 27.456 27.456 0 0 1 8.105 28.126 Q 8.105 18.995 14.6 13.014 A 21.33 21.33 0 0 1 23.265 8.261 Q 26.443 7.34 30.225 7.109 A 42.586 42.586 0 0 1 32.813 7.033 A 50.145 50.145 0 0 1 43.058 8.048 A 43.765 43.765 0 0 1 47.388 9.181 A 36.331 36.331 0 0 1 53.406 11.675 A 27.7 27.7 0 0 1 58.643 15.236 L 55.908 17.433 A 25.094 25.094 0 0 0 50.795 14.235 A 34.27 34.27 0 0 0 45.85 12.355 Q 39.795 10.548 32.813 10.548 A 34.57 34.57 0 0 0 26.848 11.03 Q 20.808 12.089 17.065 15.48 A 16.156 16.156 0 0 0 11.637 27.291 A 21.238 21.238 0 0 0 11.621 28.126 A 20.96 20.96 0 0 0 12.436 34.106 A 16.581 16.581 0 0 0 16.211 40.748 A 14.821 14.821 0 0 0 23.512 45.008 Q 25.923 45.639 28.795 45.698 A 29.081 29.081 0 0 0 29.395 45.704 Z M 35.303 35.158 L 29.395 35.158 Q 25.635 35.158 23.975 33.229 Q 22.314 31.3 22.314 28.126 Q 22.314 21.095 32.813 21.095 A 53.608 53.608 0 0 1 37.974 21.327 Q 43.388 21.852 46.816 23.569 A 14.162 14.162 0 0 1 47.656 24.025 L 44.824 26.173 A 12.007 12.007 0 0 0 42.643 25.453 Q 40.278 24.887 36.654 24.701 A 75.371 75.371 0 0 0 32.813 24.611 A 29.884 29.884 0 0 0 30.996 24.662 Q 28.338 24.824 27.224 25.506 A 2.656 2.656 0 0 0 27.173 25.538 A 3.337 3.337 0 0 0 26.295 26.337 Q 25.768 27.042 25.735 27.998 A 3.73 3.73 0 0 0 25.732 28.126 A 5.695 5.695 0 0 0 25.817 29.137 Q 25.919 29.703 26.145 30.153 A 2.874 2.874 0 0 0 26.514 30.714 A 2.175 2.175 0 0 0 27.325 31.297 Q 28.033 31.606 29.134 31.638 A 8.95 8.95 0 0 0 29.395 31.642 L 35.449 31.642 A 33.337 33.337 0 0 1 42.272 32.314 A 27.17 27.17 0 0 1 47.339 33.888 A 25.498 25.498 0 0 1 52.967 37.132 A 21.868 21.868 0 0 1 56.055 40.016 A 27.267 27.267 0 0 1 61.279 48.952 A 31.486 31.486 0 0 1 63.064 58.515 A 36.033 36.033 0 0 1 63.086 59.767 Q 63.086 64.454 61.768 68.654 Q 60.449 72.853 57.788 76.369 A 27.401 27.401 0 0 1 51.392 82.448 A 26.873 26.873 0 0 1 46.457 85.096 A 34.768 34.768 0 0 1 42.505 86.452 A 39.102 39.102 0 0 1 35.018 87.751 A 46.932 46.932 0 0 1 31.348 87.892 A 55.061 55.061 0 0 1 17.885 86.285 A 49.661 49.661 0 0 1 13.696 85.036 A 42.622 42.622 0 0 1 5.945 81.486 A 33.883 33.883 0 0 1 0 77.052 L 2.832 74.953 A 31.37 31.37 0 0 0 10.04 79.776 A 40.73 40.73 0 0 0 15.308 81.911 A 50.014 50.014 0 0 0 28.703 84.316 A 57.584 57.584 0 0 0 31.348 84.376 A 40.049 40.049 0 0 0 38.09 83.832 A 31.679 31.679 0 0 0 43.433 82.448 A 27.978 27.978 0 0 0 48.335 80.169 A 21.649 21.649 0 0 0 52.319 77.15 Q 55.811 73.781 57.69 69.337 A 24.142 24.142 0 0 0 59.563 60.405 A 27.624 27.624 0 0 0 59.57 59.767 A 29.088 29.088 0 0 0 58.606 52.163 A 25.186 25.186 0 0 0 56.836 47.487 A 21.472 21.472 0 0 0 49.198 39.011 A 25.843 25.843 0 0 0 48.511 38.576 A 23.074 23.074 0 0 0 39.866 35.491 A 30.164 30.164 0 0 0 35.303 35.158 Z M 29.395 52.736 L 34.766 52.736 Q 38.525 52.736 40.186 54.689 Q 41.846 56.642 41.846 59.767 Q 41.846 66.798 31.348 66.798 A 54.076 54.076 0 0 1 26.162 66.566 Q 20.754 66.044 17.331 64.342 A 14.139 14.139 0 0 1 16.455 63.869 L 19.287 61.72 A 11.989 11.989 0 0 0 21.472 62.44 Q 23.843 63.006 27.486 63.192 A 76.162 76.162 0 0 0 31.348 63.283 A 29.884 29.884 0 0 0 33.164 63.232 Q 35.822 63.069 36.936 62.387 A 2.656 2.656 0 0 0 36.987 62.355 A 3.337 3.337 0 0 0 37.865 61.556 Q 38.393 60.852 38.426 59.896 A 3.73 3.73 0 0 0 38.428 59.767 Q 38.428 58.433 37.876 57.551 A 3.006 3.006 0 0 0 37.622 57.203 Q 36.816 56.251 34.668 56.251 L 29.395 56.251 A 35.621 35.621 0 0 1 22.317 55.575 A 28.966 28.966 0 0 1 17.212 54.054 A 26.063 26.063 0 0 1 11.722 51.069 A 21.777 21.777 0 0 1 8.276 47.999 Q 4.785 44.142 2.93 39.064 A 30.993 30.993 0 0 1 1.12 29.938 A 35.901 35.901 0 0 1 1.074 28.126 Q 1.074 23.439 2.393 19.24 Q 3.711 15.04 6.372 11.525 Q 9.033 8.009 12.769 5.446 A 26.873 26.873 0 0 1 17.703 2.797 A 34.768 34.768 0 0 1 21.655 1.442 A 39.102 39.102 0 0 1 29.142 0.142 A 46.932 46.932 0 0 1 32.813 0.001 A 55.011 55.011 0 0 1 45.995 1.542 A 49.363 49.363 0 0 1 50.439 2.858 A 42.479 42.479 0 0 1 58.278 6.47 A 33.934 33.934 0 0 1 64.111 10.841 L 61.279 12.941 A 31.445 31.445 0 0 0 54.081 8.117 A 40.644 40.644 0 0 0 48.828 5.983 A 49.708 49.708 0 0 0 35.587 3.583 A 57.465 57.465 0 0 0 32.813 3.517 A 40.049 40.049 0 0 0 26.07 4.061 A 31.679 31.679 0 0 0 20.728 5.446 A 27.978 27.978 0 0 0 15.825 7.724 A 21.649 21.649 0 0 0 11.841 10.744 Q 8.35 14.113 6.47 18.556 A 24.142 24.142 0 0 0 4.597 27.488 A 27.624 27.624 0 0 0 4.59 28.126 A 29.294 29.294 0 0 0 5.52 35.63 A 25.033 25.033 0 0 0 7.373 40.529 Q 10.156 46.046 15.869 49.391 A 24.102 24.102 0 0 0 24.271 52.34 A 31.989 31.989 0 0 0 29.395 52.736 Z M 131.299 49.708 L 131.299 84.376 L 127.783 84.376 L 127.783 49.708 A 23.343 23.343 0 0 0 126.952 43.319 A 17.567 17.567 0 0 0 121.875 35.036 A 20.308 20.308 0 0 0 110.853 29.89 A 27.994 27.994 0 0 0 106.689 29.591 A 21.242 21.242 0 0 0 99.03 30.931 A 19.198 19.198 0 0 0 92.334 35.304 A 18.829 18.829 0 0 0 86.574 48.964 A 23.191 23.191 0 0 0 86.572 49.22 A 24.575 24.575 0 0 0 87.061 54.222 A 19.789 19.789 0 0 0 88.306 58.156 A 18.086 18.086 0 0 0 90.499 61.917 A 15.016 15.016 0 0 0 93.018 64.503 Q 95.996 66.896 99.683 68.141 Q 103.369 69.386 107.471 69.386 A 22.849 22.849 0 0 0 118.066 66.798 L 118.066 70.509 A 27.878 27.878 0 0 1 109.265 72.642 A 26.193 26.193 0 0 1 107.422 72.706 Q 102.588 72.706 98.242 71.217 A 24.248 24.248 0 0 1 90.479 66.871 A 19.016 19.016 0 0 1 86.148 61.625 A 23.334 23.334 0 0 1 85.059 59.45 A 23.788 23.788 0 0 1 83.233 52.486 A 29.507 29.507 0 0 1 83.057 49.22 A 22.205 22.205 0 0 1 89.657 33.05 A 26.804 26.804 0 0 1 89.868 32.838 A 22.886 22.886 0 0 1 106.377 26.077 A 29.416 29.416 0 0 1 106.689 26.076 A 29.651 29.651 0 0 1 114.088 26.967 A 24.933 24.933 0 0 1 119.287 28.932 Q 124.854 31.788 128.076 37.208 A 22.981 22.981 0 0 1 131.133 46.585 A 28.833 28.833 0 0 1 131.299 49.708 Z M 175.146 84.376 L 175.146 14.064 L 178.662 14.064 L 178.662 66.798 L 204.59 66.798 L 204.59 70.314 L 178.662 70.314 L 178.662 73.829 L 204.59 73.829 L 204.59 77.345 L 178.662 77.345 L 178.662 80.861 L 204.59 80.861 L 204.59 84.376 L 175.146 84.376 Z M 367.147 51.351 A 47.217 47.217 0 0 0 371.777 66.896 A 45.004 45.004 0 0 0 372.848 68.892 A 37.123 37.123 0 0 0 385.742 82.423 A 36.2 36.2 0 0 0 391.966 85.48 A 38.817 38.817 0 0 0 405.762 87.892 A 44.493 44.493 0 0 0 407.145 87.871 A 37.118 37.118 0 0 0 425.781 82.423 A 35.95 35.95 0 0 0 432.143 77.45 A 39.715 39.715 0 0 0 439.746 66.896 Q 444.824 56.837 444.824 43.947 A 59.618 59.618 0 0 0 444.377 36.542 A 47.217 47.217 0 0 0 439.746 20.997 A 45.004 45.004 0 0 0 438.675 19.002 A 37.123 37.123 0 0 0 425.781 5.47 A 36.2 36.2 0 0 0 419.557 2.413 A 38.817 38.817 0 0 0 405.762 0.001 A 44.493 44.493 0 0 0 404.379 0.023 A 37.118 37.118 0 0 0 385.742 5.47 A 35.95 35.95 0 0 0 379.381 10.443 A 39.715 39.715 0 0 0 371.777 20.997 Q 366.699 31.056 366.699 43.947 A 59.618 59.618 0 0 0 367.147 51.351 Z M 120.752 84.376 L 120.752 49.708 A 16.238 16.238 0 0 0 120.296 45.746 A 11.009 11.009 0 0 0 116.895 40.04 Q 113.037 36.622 106.689 36.622 A 12.844 12.844 0 0 0 97.461 40.333 A 12.607 12.607 0 0 0 94.538 44.48 A 11.963 11.963 0 0 0 93.604 49.22 A 18.868 18.868 0 0 0 93.799 51.997 A 14.349 14.349 0 0 0 94.385 54.469 A 13.059 13.059 0 0 0 95.273 56.533 A 9.879 9.879 0 0 0 96.509 58.327 A 11.367 11.367 0 0 0 99.707 60.866 A 14.703 14.703 0 0 0 103.589 62.306 A 19.568 19.568 0 0 0 106.745 62.716 A 22.925 22.925 0 0 0 107.91 62.745 Q 113.477 62.745 118.066 60.011 L 118.066 63.527 Q 113.33 66.017 107.861 66.017 A 23.112 23.112 0 0 1 102.821 65.481 A 20.721 20.721 0 0 1 101.245 65.065 A 17.963 17.963 0 0 1 95.605 62.184 A 12.378 12.378 0 0 1 92.554 58.772 A 15.8 15.8 0 0 1 91.577 56.911 A 16.945 16.945 0 0 1 90.315 52.462 A 22.273 22.273 0 0 1 90.088 49.22 A 15.76 15.76 0 0 1 91.847 41.769 A 16.191 16.191 0 0 1 94.824 37.794 Q 99.561 33.107 106.689 33.107 A 22.788 22.788 0 0 1 112.268 33.754 A 16.371 16.371 0 0 1 119.409 37.526 A 14.522 14.522 0 0 1 123.954 45.982 A 21.21 21.21 0 0 1 124.268 49.708 L 124.268 84.376 L 120.752 84.376 Z M 372.9 27.418 A 47.304 47.304 0 0 0 370.383 39.563 A 56.314 56.314 0 0 0 370.215 43.947 A 52.122 52.122 0 0 0 371.344 54.97 A 44.925 44.925 0 0 0 372.9 60.475 A 41.402 41.402 0 0 0 376.503 68.17 A 33.804 33.804 0 0 0 380.298 73.292 A 33.235 33.235 0 0 0 391.577 81.447 A 34.301 34.301 0 0 0 405.283 84.373 A 39.353 39.353 0 0 0 405.762 84.376 A 34.843 34.843 0 0 0 417.868 82.291 A 33.141 33.141 0 0 0 419.946 81.447 A 33.235 33.235 0 0 0 431.226 73.292 Q 435.938 68.068 438.623 60.475 A 47.304 47.304 0 0 0 441.141 48.331 A 56.314 56.314 0 0 0 441.309 43.947 A 52.122 52.122 0 0 0 440.179 32.923 A 44.925 44.925 0 0 0 438.623 27.418 A 41.402 41.402 0 0 0 435.02 19.724 A 33.804 33.804 0 0 0 431.226 14.601 A 33.235 33.235 0 0 0 419.946 6.447 A 34.301 34.301 0 0 0 406.24 3.52 A 39.353 39.353 0 0 0 405.762 3.517 A 34.843 34.843 0 0 0 393.655 5.603 A 33.141 33.141 0 0 0 391.577 6.447 A 33.235 33.235 0 0 0 380.298 14.601 Q 375.586 19.826 372.9 27.418 Z M 310.01 55.031 L 310.01 33.839 A 14.591 14.591 0 0 1 310.503 29.93 A 10.15 10.15 0 0 1 314.38 24.293 Q 318.75 21.095 325.635 21.095 A 44.874 44.874 0 0 1 330.62 21.353 Q 335.888 21.944 339.174 23.886 A 13.235 13.235 0 0 1 339.404 24.025 L 336.572 26.173 A 10.862 10.862 0 0 0 334.459 25.427 Q 332.275 24.872 328.983 24.694 A 62.361 62.361 0 0 0 325.635 24.611 Q 321.54 24.611 318.65 25.829 A 11.301 11.301 0 0 0 316.846 26.784 A 7.047 7.047 0 0 0 313.774 31.372 A 11.525 11.525 0 0 0 313.525 33.839 L 313.525 55.031 A 10.929 10.929 0 0 0 313.651 56.735 Q 313.8 57.674 314.123 58.463 A 6.507 6.507 0 0 0 314.233 58.717 A 7.678 7.678 0 0 0 314.969 59.995 A 5.739 5.739 0 0 0 316.04 61.134 Q 316.986 61.891 318.475 62.34 A 11.461 11.461 0 0 0 318.97 62.477 A 23.367 23.367 0 0 0 321.391 62.961 A 19.812 19.812 0 0 0 322.485 63.087 A 34.246 34.246 0 0 0 323.855 63.177 Q 324.47 63.205 325.159 63.219 A 70.085 70.085 0 0 0 326.611 63.234 Q 332.11 63.234 334.481 61.844 A 3.236 3.236 0 0 0 336.279 58.937 A 4.956 4.956 0 0 0 336.072 57.458 A 3.655 3.655 0 0 0 334.326 55.324 Q 332.373 54.201 329.297 54.201 Q 322.266 54.201 316.211 56.935 L 316.211 53.419 A 34.161 34.161 0 0 1 328.362 50.941 A 39.166 39.166 0 0 1 329.346 50.929 A 17.289 17.289 0 0 1 332.624 51.223 Q 335.001 51.682 336.816 52.858 Q 339.795 54.786 339.795 58.937 Q 339.795 62.843 336.108 64.796 A 15.291 15.291 0 0 1 332.476 66.131 Q 330.732 66.547 328.684 66.683 A 31.238 31.238 0 0 1 326.611 66.749 A 45.362 45.362 0 0 1 323.865 66.67 A 33.736 33.736 0 0 1 321.387 66.432 A 21.09 21.09 0 0 1 316.87 65.309 A 13.086 13.086 0 0 1 314.874 64.381 A 10.084 10.084 0 0 1 313.232 63.209 A 8.568 8.568 0 0 1 311.512 61.089 A 10.888 10.888 0 0 1 310.889 59.84 Q 310.01 57.765 310.01 55.031 Z M 433.667 24.537 Q 437.793 32.96 437.793 43.947 A 49.702 49.702 0 0 1 436.766 54.273 A 38.908 38.908 0 0 1 433.667 63.356 Q 429.541 71.779 422.266 76.32 A 30.118 30.118 0 0 1 407.475 80.821 A 36.438 36.438 0 0 1 405.762 80.861 Q 396.533 80.861 389.258 76.32 A 30.082 30.082 0 0 1 379.223 65.893 A 36.88 36.88 0 0 1 377.856 63.356 Q 373.73 54.933 373.73 43.947 A 49.702 49.702 0 0 1 374.758 33.62 A 38.908 38.908 0 0 1 377.856 24.537 Q 381.982 16.115 389.258 11.574 A 30.118 30.118 0 0 1 404.049 7.073 A 36.438 36.438 0 0 1 405.762 7.033 Q 414.99 7.033 422.266 11.574 A 30.082 30.082 0 0 1 432.301 22 A 36.88 36.88 0 0 1 433.667 24.537 Z M 385.181 19.679 A 31.208 31.208 0 0 0 378.457 33.038 Q 377.246 38.034 377.246 43.947 A 46.866 46.866 0 0 0 378.316 54.253 Q 380.16 62.436 385.181 68.214 Q 393.115 77.345 405.762 77.345 Q 418.408 77.345 426.343 68.214 A 31.208 31.208 0 0 0 433.067 54.856 Q 434.277 49.859 434.277 43.947 A 46.866 46.866 0 0 0 433.208 33.64 Q 431.364 25.457 426.343 19.679 Q 418.408 10.548 405.762 10.548 Q 393.115 10.548 385.181 19.679 Z M 502.051 91.408 L 524.658 3.566 L 528.32 3.566 L 505.713 91.408 L 502.051 91.408 Z M 509.375 91.408 L 531.982 3.566 L 535.645 3.566 L 512.988 91.408 L 509.375 91.408 Z M 516.65 91.408 L 539.307 3.566 L 542.92 3.566 L 520.264 91.408 L 516.65 91.408 Z M 450.635 29.884 A 29.475 29.475 0 0 0 452.979 41.481 A 34.139 34.139 0 0 0 453.432 42.506 A 29.78 29.78 0 0 0 459.277 51.027 A 28.393 28.393 0 0 0 460.161 51.883 A 29.891 29.891 0 0 0 468.701 57.399 A 28.457 28.457 0 0 0 480.127 59.767 Q 485.986 59.767 491.357 57.399 Q 496.729 55.031 500.635 51.027 A 28.151 28.151 0 0 0 502.294 49.167 A 30.554 30.554 0 0 0 506.836 41.481 Q 509.131 35.939 509.131 29.884 A 30.018 30.018 0 0 0 506.836 18.287 A 34.006 34.006 0 0 0 506.389 17.257 A 29.527 29.527 0 0 0 500.635 8.742 Q 496.729 4.738 491.357 2.37 A 27.543 27.543 0 0 0 480.127 0.001 A 28.457 28.457 0 0 0 468.701 2.37 Q 463.232 4.738 459.277 8.742 A 28.464 28.464 0 0 0 457.737 10.432 A 30.702 30.702 0 0 0 452.979 18.287 A 29.475 29.475 0 0 0 450.635 29.884 Z M 537.256 58.009 A 29.475 29.475 0 0 0 539.6 69.606 A 34.139 34.139 0 0 0 540.053 70.631 A 29.78 29.78 0 0 0 545.898 79.152 A 28.393 28.393 0 0 0 546.782 80.008 A 29.891 29.891 0 0 0 555.322 85.524 A 28.457 28.457 0 0 0 566.748 87.892 Q 572.607 87.892 577.979 85.524 Q 583.35 83.156 587.256 79.152 A 28.151 28.151 0 0 0 588.915 77.292 A 30.554 30.554 0 0 0 593.457 69.606 Q 595.752 64.064 595.752 58.009 A 30.018 30.018 0 0 0 593.457 46.412 A 34.006 34.006 0 0 0 593.01 45.382 A 29.527 29.527 0 0 0 587.256 36.867 Q 583.35 32.863 577.979 30.495 A 27.543 27.543 0 0 0 566.748 28.126 A 28.457 28.457 0 0 0 555.322 30.495 Q 549.854 32.863 545.898 36.867 A 28.464 28.464 0 0 0 544.358 38.557 A 30.702 30.702 0 0 0 539.6 46.412 A 29.475 29.475 0 0 0 537.256 58.009 Z M 429.532 33.402 A 27.658 27.658 0 0 0 423.853 22.169 A 22.329 22.329 0 0 0 414.728 15.615 A 25.005 25.005 0 0 0 405.762 14.064 A 29.515 29.515 0 0 0 404.019 14.115 A 22.352 22.352 0 0 0 387.671 22.169 A 25.623 25.623 0 0 0 385.747 24.737 Q 380.762 32.334 380.762 43.947 A 52.347 52.347 0 0 0 380.782 45.417 Q 380.92 50.33 381.991 54.492 A 27.658 27.658 0 0 0 387.671 65.724 A 22.329 22.329 0 0 0 396.796 72.278 A 25.005 25.005 0 0 0 405.762 73.829 A 29.515 29.515 0 0 0 407.504 73.779 A 22.352 22.352 0 0 0 423.853 65.724 A 25.623 25.623 0 0 0 425.777 63.156 Q 430.762 55.559 430.762 43.947 A 52.347 52.347 0 0 0 430.741 42.476 Q 430.603 37.563 429.532 33.402 Z M 544.263 44.801 A 26.067 26.067 0 0 0 540.771 58.009 A 26.067 26.067 0 0 0 544.263 71.217 A 26.072 26.072 0 0 0 553.735 80.836 Q 559.717 84.376 566.748 84.376 Q 573.633 84.376 579.517 80.836 A 25.748 25.748 0 0 0 588.818 71.217 Q 592.236 65.138 592.236 58.009 Q 592.236 50.88 588.818 44.801 Q 585.4 38.722 579.517 35.182 A 24.322 24.322 0 0 0 566.748 31.642 Q 559.717 31.642 553.735 35.182 A 26.072 26.072 0 0 0 544.263 44.801 Z M 457.642 16.676 A 26.067 26.067 0 0 0 454.15 29.884 A 26.067 26.067 0 0 0 457.642 43.092 A 26.072 26.072 0 0 0 467.114 52.711 Q 473.096 56.251 480.127 56.251 Q 487.012 56.251 492.896 52.711 A 25.748 25.748 0 0 0 502.197 43.092 Q 505.615 37.013 505.615 29.884 Q 505.615 22.755 502.197 16.676 Q 498.779 10.597 492.896 7.057 A 24.322 24.322 0 0 0 480.127 3.517 Q 473.096 3.517 467.114 7.057 A 26.072 26.072 0 0 0 457.642 16.676 Z M 390.161 24.635 A 23.874 23.874 0 0 0 385.57 33.599 Q 384.277 38.202 384.277 43.947 A 41.221 41.221 0 0 0 384.971 51.748 Q 386.297 58.624 390.161 63.258 A 19.004 19.004 0 0 0 403.974 70.252 A 25.357 25.357 0 0 0 405.762 70.314 A 21.641 21.641 0 0 0 413.278 69.058 A 18.915 18.915 0 0 0 421.362 63.258 A 23.874 23.874 0 0 0 425.953 54.294 Q 427.246 49.692 427.246 43.947 A 41.221 41.221 0 0 0 426.553 36.145 Q 425.226 29.269 421.362 24.635 A 19.004 19.004 0 0 0 407.55 17.641 A 25.357 25.357 0 0 0 405.762 17.579 A 21.641 21.641 0 0 0 398.245 18.835 A 18.915 18.915 0 0 0 390.161 24.635 Z M 154.053 84.376 L 154.053 14.064 L 157.568 14.064 L 157.568 84.376 L 154.053 84.376 Z M 168.115 84.376 L 168.115 14.064 L 171.631 14.064 L 171.631 84.376 L 168.115 84.376 Z M 161.084 84.376 L 161.084 14.064 L 164.6 14.064 L 164.6 84.376 L 161.084 84.376 Z M 229.932 14.064 L 229.932 84.376 L 226.416 84.376 L 226.416 14.064 L 229.932 14.064 Z M 222.9 14.064 L 222.9 84.376 L 219.385 84.376 L 219.385 14.064 L 222.9 14.064 Z M 215.869 14.064 L 215.869 84.376 L 212.354 84.376 L 212.354 14.064 L 215.869 14.064 Z M 582.251 41.871 Q 588.721 48.585 588.721 58.009 Q 588.721 67.433 582.251 74.147 Q 575.781 80.861 566.748 80.861 A 21.591 21.591 0 0 1 555.518 77.785 A 22.68 22.68 0 0 1 547.314 69.435 A 22.56 22.56 0 0 1 544.287 58.009 A 22.56 22.56 0 0 1 547.314 46.583 A 22.68 22.68 0 0 1 555.518 38.234 A 21.591 21.591 0 0 1 566.748 35.158 A 20.689 20.689 0 0 1 581.844 41.458 A 26.326 26.326 0 0 1 582.251 41.871 Z M 495.63 13.746 Q 502.1 20.46 502.1 29.884 Q 502.1 39.308 495.63 46.022 Q 489.16 52.736 480.127 52.736 A 21.591 21.591 0 0 1 468.896 49.66 A 22.68 22.68 0 0 1 460.693 41.31 A 22.56 22.56 0 0 1 457.666 29.884 A 22.56 22.56 0 0 1 460.693 18.458 A 22.68 22.68 0 0 1 468.896 10.109 A 21.591 21.591 0 0 1 480.127 7.033 A 20.689 20.689 0 0 1 495.223 13.333 A 26.326 26.326 0 0 1 495.63 13.746 Z M 423.73 43.947 A 43.041 43.041 0 0 0 423.601 40.552 Q 422.938 32.172 418.872 27.125 Q 414.014 21.095 405.762 21.095 A 21.25 21.25 0 0 0 404.121 21.157 A 15.669 15.669 0 0 0 392.651 27.125 A 18.842 18.842 0 0 0 390.288 30.926 Q 388.935 33.793 388.316 37.378 A 38.648 38.648 0 0 0 387.793 43.947 A 43.041 43.041 0 0 0 387.922 47.341 Q 388.586 55.721 392.651 60.768 Q 397.51 66.798 405.762 66.798 A 21.25 21.25 0 0 0 407.403 66.736 A 15.669 15.669 0 0 0 418.872 60.768 A 18.842 18.842 0 0 0 421.236 56.967 Q 422.588 54.1 423.207 50.516 A 38.648 38.648 0 0 0 423.73 43.947 Z M 553.369 44.362 A 18.817 18.817 0 0 0 547.803 57.978 A 22.777 22.777 0 0 0 547.803 58.009 A 18.817 18.817 0 0 0 553.347 71.634 A 22.663 22.663 0 0 0 553.369 71.657 A 18.65 18.65 0 0 0 560.342 76.256 A 18.567 18.567 0 0 0 566.748 77.345 A 17.291 17.291 0 0 0 579.423 72.028 A 22.027 22.027 0 0 0 579.785 71.657 A 19.085 19.085 0 0 0 585.205 58.009 A 19.085 19.085 0 0 0 579.785 44.362 A 18.366 18.366 0 0 0 573.714 40.051 A 17.502 17.502 0 0 0 566.748 38.673 A 18.003 18.003 0 0 0 553.631 44.098 A 22.443 22.443 0 0 0 553.369 44.362 Z M 466.748 16.237 A 18.817 18.817 0 0 0 461.182 29.853 A 22.777 22.777 0 0 0 461.182 29.884 A 18.817 18.817 0 0 0 466.726 43.509 A 22.663 22.663 0 0 0 466.748 43.532 A 18.65 18.65 0 0 0 473.721 48.131 A 18.567 18.567 0 0 0 480.127 49.22 A 17.291 17.291 0 0 0 492.802 43.903 A 22.027 22.027 0 0 0 493.164 43.532 A 19.085 19.085 0 0 0 498.584 29.884 A 19.085 19.085 0 0 0 493.164 16.237 A 18.366 18.366 0 0 0 487.093 11.926 A 17.502 17.502 0 0 0 480.127 10.548 A 18.003 18.003 0 0 0 467.01 15.973 A 22.443 22.443 0 0 0 466.748 16.237 Z M 395.142 29.591 A 16.437 16.437 0 0 0 392.555 34.683 Q 391.309 38.6 391.309 43.947 A 36.764 36.764 0 0 0 391.683 49.377 Q 392.506 54.878 395.142 58.302 Q 398.975 63.283 405.762 63.283 Q 412.549 63.283 416.382 58.302 A 16.437 16.437 0 0 0 418.968 53.211 Q 420.215 49.293 420.215 43.947 A 36.764 36.764 0 0 0 419.841 38.516 Q 419.017 33.015 416.382 29.591 Q 412.549 24.611 405.762 24.611 Q 398.975 24.611 395.142 29.591 Z M 577.295 46.852 Q 581.689 51.515 581.689 58.009 Q 581.689 64.503 577.295 69.166 A 15.014 15.014 0 0 1 572.625 72.59 A 13.935 13.935 0 0 1 566.748 73.829 A 14.659 14.659 0 0 1 556.073 69.406 A 18.377 18.377 0 0 1 555.859 69.191 A 15.403 15.403 0 0 1 551.318 58.035 A 18.973 18.973 0 0 1 551.318 58.009 A 15.404 15.404 0 0 1 555.842 46.846 A 18.538 18.538 0 0 1 555.859 46.828 A 15.281 15.281 0 0 1 561.366 43.141 A 15.018 15.018 0 0 1 566.748 42.189 Q 572.9 42.189 577.295 46.852 Z M 490.674 18.727 Q 495.068 23.39 495.068 29.884 Q 495.068 36.378 490.674 41.041 A 15.014 15.014 0 0 1 486.004 44.465 A 13.935 13.935 0 0 1 480.127 45.704 A 14.659 14.659 0 0 1 469.452 41.281 A 18.377 18.377 0 0 1 469.238 41.066 A 15.403 15.403 0 0 1 464.697 29.91 A 18.973 18.973 0 0 1 464.697 29.884 A 15.404 15.404 0 0 1 469.221 18.721 A 18.538 18.538 0 0 1 469.238 18.703 A 15.281 15.281 0 0 1 474.745 15.016 A 15.018 15.018 0 0 1 480.127 14.064 Q 486.279 14.064 490.674 18.727 Z M 558.325 49.318 A 12.06 12.06 0 0 0 554.834 58.009 A 12.06 12.06 0 0 0 558.325 66.701 A 11.686 11.686 0 0 0 562.641 69.597 A 11.599 11.599 0 0 0 566.748 70.314 A 10.545 10.545 0 0 0 574.512 67.031 A 13.618 13.618 0 0 0 574.829 66.701 Q 578.174 63.087 578.174 58.009 Q 578.174 52.931 574.829 49.318 A 11.393 11.393 0 0 0 571.27 46.669 A 10.599 10.599 0 0 0 566.748 45.704 A 11.249 11.249 0 0 0 558.545 49.095 A 14.028 14.028 0 0 0 558.325 49.318 Z M 471.704 21.193 A 12.06 12.06 0 0 0 468.213 29.884 A 12.06 12.06 0 0 0 471.704 38.576 A 11.686 11.686 0 0 0 476.02 41.472 A 11.599 11.599 0 0 0 480.127 42.189 A 10.545 10.545 0 0 0 487.891 38.906 A 13.618 13.618 0 0 0 488.208 38.576 Q 491.553 34.962 491.553 29.884 Q 491.553 24.806 488.208 21.193 A 11.393 11.393 0 0 0 484.649 18.544 A 10.599 10.599 0 0 0 480.127 17.579 A 11.249 11.249 0 0 0 471.924 20.97 A 14.028 14.028 0 0 0 471.704 21.193 Z M 574.658 58.009 A 8.973 8.973 0 0 0 572.339 51.808 A 9.58 9.58 0 0 0 572.045 51.495 A 7.168 7.168 0 0 0 566.748 49.22 A 7.973 7.973 0 0 0 563.601 49.837 A 8.346 8.346 0 0 0 560.815 51.808 Q 558.35 54.396 558.35 58.009 A 8.673 8.673 0 0 0 560.815 64.21 A 10.016 10.016 0 0 0 560.98 64.379 A 7.868 7.868 0 0 0 566.748 66.798 A 7.081 7.081 0 0 0 570.127 65.979 A 8.066 8.066 0 0 0 572.339 64.21 A 8.973 8.973 0 0 0 574.658 58.009 Z M 488.037 29.884 A 8.973 8.973 0 0 0 485.718 23.683 A 9.58 9.58 0 0 0 485.424 23.37 A 7.168 7.168 0 0 0 480.127 21.095 A 7.973 7.973 0 0 0 476.98 21.712 A 8.346 8.346 0 0 0 474.194 23.683 Q 471.729 26.271 471.729 29.884 A 8.673 8.673 0 0 0 474.194 36.085 A 10.016 10.016 0 0 0 474.359 36.254 A 7.868 7.868 0 0 0 480.127 38.673 A 7.081 7.081 0 0 0 483.506 37.854 A 8.066 8.066 0 0 0 485.718 36.085 A 8.973 8.973 0 0 0 488.037 29.884 Z M 563.306 54.298 A 5.29 5.29 0 0 0 561.865 58.009 A 5.29 5.29 0 0 0 563.306 61.72 A 4.998 4.998 0 0 0 564.72 62.812 A 4.426 4.426 0 0 0 566.748 63.283 A 3.766 3.766 0 0 0 569.453 62.15 A 5.39 5.39 0 0 0 569.849 61.72 A 5.608 5.608 0 0 0 571.141 58.143 A 7.045 7.045 0 0 0 571.143 58.009 A 5.963 5.963 0 0 0 570.744 55.806 A 5.528 5.528 0 0 0 569.849 54.298 A 4.748 4.748 0 0 0 568.806 53.346 A 3.668 3.668 0 0 0 566.748 52.736 A 4.485 4.485 0 0 0 563.448 54.149 A 5.978 5.978 0 0 0 563.306 54.298 Z M 476.685 26.173 A 5.29 5.29 0 0 0 475.244 29.884 A 5.29 5.29 0 0 0 476.685 33.595 A 4.998 4.998 0 0 0 478.099 34.687 A 4.426 4.426 0 0 0 480.127 35.158 A 3.766 3.766 0 0 0 482.832 34.025 A 5.39 5.39 0 0 0 483.228 33.595 A 5.608 5.608 0 0 0 484.52 30.018 A 7.045 7.045 0 0 0 484.521 29.884 A 5.963 5.963 0 0 0 484.123 27.681 A 5.528 5.528 0 0 0 483.228 26.173 A 4.748 4.748 0 0 0 482.185 25.221 A 3.668 3.668 0 0 0 480.127 24.611 A 4.485 4.485 0 0 0 476.827 26.024 A 5.978 5.978 0 0 0 476.685 26.173 Z" vector-effect="non-scaling-stroke"/></g></svg>